<?xml version="1.0" standalone="no"?><svg xmlns="http://www.w3.org/2000/svg" viewBox="0 0 1440 320"><path fill="#E0F2FE" fill-opacity="1" d="M0,0L24,21.3C48,43,96,85,144,96C192,107,240,85,288,90.7C336,96,384,128,432,165.3C480,203,528,245,576,256C624,267,672,245,720,234.7C768,224,816,224,864,213.3C912,203,960,181,1008,197.3C1056,213,1104,267,1152,245.3C1200,224,1248,128,1296,117.3C1344,107,1392,181,1416,218.7L1440,256L1440,0L1416,0C1392,0,1344,0,1296,0C1248,0,1200,0,1152,0C1104,0,1056,0,1008,0C960,0,912,0,864,0C816,0,768,0,720,0C672,0,624,0,576,0C528,0,480,0,432,0C384,0,336,0,288,0C240,0,192,0,144,0C96,0,48,0,24,0L0,0Z"></path></svg>